<svg data-v-0dd9719b="" version="1.0" xmlns="http://www.w3.org/2000/svg" xmlns:xlink="http://www.w3.org/1999/xlink" width="100%" height="100%" viewBox="0 0 340.000000 250.000000" preserveAspectRatio="xMidYMid meet" color-interpolation-filters="sRGB" style="margin: auto;"> <rect data-v-0dd9719b="" x="0" y="0" width="100%" height="100%" fill="#fff" fill-opacity="1" class="background"></rect> <rect data-v-0dd9719b="" x="0" y="0" width="100%" height="100%" fill="url(#watermark)" fill-opacity="1" class="watermarklayer"></rect> <g data-v-0dd9719b="" fill="#333" class="icon-text-wrapper icon-svg-group iconsvg" transform="translate(48.45269012451172,92.12940979003906)"><g class="iconsvg-imagesvg" transform="translate(0,0)"><g><rect fill="#333" fill-opacity="0" stroke-width="2" x="0" y="0" width="60" height="65.74117698620532" class="image-rect"></rect> <svg x="0" y="0" width="60" height="65.74117698620532" filtersec="colorsb4330424996" class="image-svg-svg primary" style="overflow: visible;"><svg xmlns="http://www.w3.org/2000/svg" viewBox="0.0018437110120430589 0 91.22099304199219 99.94999694824219"><path d="M71.1 48.23c0-1.43 0-2.84-.1-4.23 0-1.09-.13-2.16-.22-3.23-.18-2.27-.41-4.49-.75-6.64-.17-1.11-.38-2.19-.6-3.27a72.55 72.55 0 0 0-2.27-8.67c-.25-.75-.51-1.48-.78-2.2-.59-1.56-1.22-3-1.9-4.44-.35-.71-.69-1.42-1.06-2.1C58.85 5.1 52.61 0 45.61 0c-11 0-20.2 12.65-23.81 30.86 1.78-1.36 3.62-2.69 5.58-4C31 13.64 37.91 4.48 45.61 4.48c4.84 0 9.35 3.63 12.94 9.6.4.65.77 1.34 1.14 2a47 47 0 0 1 2 4.27c.28.69.53 1.41.78 2.13.5 1.4 1 2.85 1.39 4.36q.43 1.61.81 3.27c.46 2.06.85 4.2 1.15 6.41.15 1 .29 2.06.39 3.13a84.71 84.71 0 0 1 .43 8.53 77.59 77.59 0 0 1-4.17 25.7c-.25.72-.51 1.44-.78 2.13-.62 1.53-1.29 2.94-2 4.29-.36.69-.73 1.36-1.11 2-2.44 4.05-5.3 7-8.39 8.49a5.68 5.68 0 0 0-4.57-2.41 5.79 5.79 0 0 0 0 11.57 5.71 5.71 0 0 0 5.57-4.69C55.9 93.38 60.1 89.07 63.41 83c.37-.67.72-1.38 1.06-2.09q1-2.11 1.91-4.45c.27-.72.53-1.45.78-2.2a83.14 83.14 0 0 0 3.94-26.03z" fill="#1d3bd4"></path><path d="M36.26 74.69C23 78.14 11.58 76.77 7.72 70.1c-2.42-4.19-1.52-9.91 1.85-16 .37-.66.78-1.33 1.21-2a46.78 46.78 0 0 1 2.7-3.86c.46-.58 1-1.17 1.46-1.75 1-1.13 2-2.26 3.08-3.38.78-.78 1.59-1.56 2.43-2.33 1.55-1.43 3.2-2.84 5-4.21.83-.64 1.65-1.28 2.52-1.9C30.19 33 32.59 31.48 35.1 30a77.72 77.72 0 0 1 24.34-9.24 43 43 0 0 0-2-4.24 82.63 82.63 0 0 0-24.52 9.6c-1.24.72-2.43 1.46-3.61 2.21-.92.59-1.81 1.19-2.69 1.8-1.87 1.29-3.68 2.61-5.37 4-.88.71-1.71 1.43-2.53 2.15a71.93 71.93 0 0 0-6.38 6.31c-.53.59-1 1.18-1.52 1.77Q9.2 46.3 7.88 48.23c-.44.65-.88 1.31-1.28 2-5 8.13-6.25 16.09-2.75 22.15 3.37 5.84 10.48 8.73 19.51 8.73a60.61 60.61 0 0 0 19.11-3.53c-2.06-.9-4.13-1.84-6.21-2.89zM6.6 46.26c.91-1.3 1.89-2.6 3-3.9-2.26-4.1-3.38-8-3.15-11.43a5.76 5.76 0 0 0 2.23-10.71 5.87 5.87 0 0 0-2.89-.77 5.81 5.81 0 0 0-5 2.89 5.72 5.72 0 0 0-.59 4.39 5.64 5.64 0 0 0 1.86 2.78C1.37 34.57 3 40.36 6.6 46.26zM72.56 36.28c.29 2.23.52 4.49.65 6.82 9.64 9.8 14.14 20.34 10.3 27-2.42 4.19-7.83 6.28-14.8 6.41q-.87 2.35-1.88 4.51h1c9 0 16.14-2.89 19.51-8.73 5.56-9.51-.82-23.77-14.78-36.01z" fill="#1d3bd4"></path><path d="M45.61 71.56c-1-.4-1.93-.79-2.91-1.23a86.795 86.795 0 0 1-7.6-3.9A77.78 77.78 0 0 1 14.93 50a44 44 0 0 0-2.64 3.9 82.87 82.87 0 0 0 20.58 16.4c1.24.72 2.48 1.38 3.72 2 1 .51 1.94 1 2.9 1.43q3.09 1.47 6.12 2.66c1.06.4 2.1.77 3.15 1.13a71.29 71.29 0 0 0 8.64 2.38 42.75 42.75 0 0 0 2-4.23c-1.46-.27-2.95-.59-4.47-1-1.07-.28-2.15-.6-3.24-.93-1.97-.61-4.02-1.34-6.08-2.18zM90.45 22.34a5.81 5.81 0 0 0-5-2.89 5.63 5.63 0 0 0-1.9.37c-4-3.09-9.84-4.56-16.71-4.4.68 1.45 1.31 3 1.89 4.53 4.71.09 8.68 1.09 11.52 3a5.72 5.72 0 0 0 .2 5.17 5.81 5.81 0 0 0 5 2.89 5.79 5.79 0 0 0 5-8.68z" fill="#1d3bd4"></path><circle cx="45.61" cy="48.81" r="11.16" fill="#f39a2c"></circle></svg></svg> <!----></g></g> <g transform="translate(67,7.799764633178711)"><g data-gra="path-name" fill-rule="" class="tp-name iconsvg-namesvg" transform="translate(0,0)"><g transform="scale(1)"><g><path d="M8.72 1.16L8.72 1.16Q9.95 2.95 10.09 2.99L10.09 2.99Q10.16 3.02 10.48 2.71L10.48 2.71Q10.9 2.25 13.46 0.67L13.46 0.67Q20.36-3.55 20.43-4.01L20.43-4.01Q20.43-4.25 18.81-3.8L18.81-3.8Q18.35-3.66 17.75-3.48L17.75-3.48Q13.99-2.32 13.85-2.29L13.85-2.29Q12.73-2.07 12.45-2.88L12.45-2.88Q12.27-3.45 12.3-7.21L12.3-7.21Q12.3-7.8 12.3-8.33L12.3-8.33Q12.3-8.96 12.3-10.05L12.3-10.05Q12.27-13.46 12.5-14.03 12.73-14.59 14.1-14.55L14.1-14.55Q14.55-14.55 14.84-14.55L14.84-14.55Q16.66-14.55 17-14.4 17.33-14.24 17.61-13.25L17.61-13.25Q20.64-3.45 29.64 1.41L29.64 1.41Q30.8 2.04 30.97 1.93L30.97 1.93Q31.08 1.9 31.29 1.44L31.29 1.44Q32.06-0.18 33.43-0.63L33.43-0.63Q34.07-0.84 34.03-0.98L34.03-0.98Q34-1.2 32.84-1.58L32.84-1.58Q22.68-5.17 18.7-12.8L18.7-12.8Q18.11-13.85 18.14-14.03L18.14-14.03Q18.21-14.45 20.46-14.52L20.46-14.52Q21.16-14.52 25.91-14.55L25.91-14.55Q31.75-14.59 32.64-14.63 33.54-14.66 33.71-14.94L33.71-14.94Q34.03-15.4 31.71-17.33L31.71-17.33Q30.55-18.25 30.27-18.25L30.27-18.25Q29.95-18.25 29.21-17.23L29.21-17.23Q28.93-16.8 28.9-16.77L28.9-16.77Q28.79-16.63 28.69-16.42L28.69-16.42Q28.34-15.86 27.84-15.71L27.84-15.71Q27.18-15.57 22.64-15.54L22.64-15.54Q21.27-15.54 20.46-15.54L20.46-15.54Q14.66-15.54 13.68-15.59 12.69-15.64 12.52-15.93L12.52-15.93Q12.48-15.96 12.48-16L12.48-16Q12.38-16.17 12.38-16.58 12.38-16.98 12.48-17.23L12.48-17.23Q12.62-17.51 12.9-17.67 13.18-17.82 14.2-18.25L14.2-18.25Q21.2-21.02 26.75-25L26.75-25Q28.16-25.98 28.62-25.98L28.62-25.98Q29.39-25.98 28.69-26.68L28.69-26.68Q28.2-27.21 26.72-28.34L26.72-28.34Q25.91-29 25.7-28.95 25.49-28.9 24.4-27.84L24.4-27.84Q19.93-23.34 13.96-19.44L13.96-19.44Q12.87-18.77 12.66-18.95L12.66-18.95Q12.27-19.23 12.3-22.5L12.3-22.5Q12.3-22.92 12.3-23.87L12.3-23.87Q12.34-26.96 12.41-27.56 12.48-28.16 12.9-28.41L12.9-28.41 12.94-28.44Q13.61-28.83 11.99-29.43L11.99-29.43Q11.18-29.71 9.7-30.09L9.7-30.09Q9.56-30.13 9.32-30.2L9.32-30.2Q8.72-30.38 8.63-30.22 8.54-30.06 8.68-28.9L8.68-28.9Q8.72-28.44 8.75-28.13L8.75-28.13Q8.89-26.72 8.93-21.53 8.96-16.35 8.82-16.07L8.82-16.07Q8.4-15.29 3.69-15.68L3.69-15.68Q3.48-15.68 3.22-15.71 2.95-15.75 2.78-15.77 2.6-15.79 2.53-15.79L2.53-15.79Q2.25-15.82 2.29-15.61 2.32-15.4 2.64-14.84L2.64-14.84Q2.95-14.24 3.11-14.19 3.27-14.13 4.32-14.34L4.32-14.34Q5.98-14.63 7.31-14.54 8.65-14.45 8.82-14.06L8.82-14.06Q8.93-13.82 8.93-8.33 8.93-2.85 8.82-2.5L8.82-2.5Q8.61-1.86 7.88-1.34L7.88-1.34Q7.42-1.02 7.51-0.76 7.59-0.49 8.72 1.16ZM45.6 2.88L45.6 2.88Q46.27 3.27 47.58 2.81 48.9 2.36 48.9 1.72L48.9 1.72Q48.9 1.02 49.22 0.84L49.22 0.84Q49.75 0.63 54 0.63L54 0.63Q58.18 0.63 58.64 0.84L58.64 0.84Q58.99 1.02 58.92 1.76L58.92 1.76Q58.92 1.83 58.92 1.86L58.92 1.86Q58.85 2.71 59.66 2.79 60.47 2.88 61.95 2.18L61.95 2.18Q62.61 1.9 62.67 1.63 62.72 1.37 62.65-0.7L62.65-0.7Q62.4-7.38 62.72-8.26L62.72-8.26Q62.93-8.96 63.81-8.33L63.81-8.33Q64.02-8.19 64.34-7.95L64.34-7.95Q67.32-5.55 67.57-6.33L67.57-6.33Q68.06-7.91 69.86-8.79L69.86-8.79Q70.91-9.35 70-9.63L70-9.63Q67.68-10.34 64.44-12.3 61.21-14.27 61.21-15.01L61.21-15.01Q61.21-15.33 61.75-15.38 62.3-15.43 65.53-15.47L65.53-15.47Q69.47-15.5 69.82-15.89L69.82-15.89Q70.17-16.24 68.55-17.51L68.55-17.51Q68.24-17.75 67.78-18.11L67.78-18.11Q66.59-18.98 66.27-18.95 65.95-18.91 65.07-17.79L65.07-17.79Q64.3-16.77 63.97-16.63 63.63-16.49 61.77-16.49L61.77-16.49Q59.87-16.49 59.45-16.66 59.03-16.84 58.25-17.86L58.25-17.86Q57.09-19.48 57.06-19.79L57.06-19.79Q57.06-20.29 58.78-20.36L58.78-20.36Q59.38-20.39 62.05-20.39L62.05-20.39Q65.67-20.43 66.29-20.46 66.9-20.5 67.08-20.78L67.08-20.78Q67.39-21.27 65.07-23.03L65.07-23.03Q64.16-23.73 63.9-23.71 63.63-23.7 62.96-22.78L62.96-22.78Q62.23-21.8 61.95-21.66L61.95-21.66Q61.42-21.38 58.5-21.38L58.5-21.38Q57.69-21.38 57.45-21.38L57.45-21.38 56.99-21.38Q53.72-21.41 53.33-21.66L53.33-21.66Q53.02-21.9 53.33-22.96L53.33-22.96Q53.33-22.99 53.37-23.06L53.37-23.06Q53.44-23.31 53.47-23.41L53.47-23.41Q53.75-24.64 54.18-24.96L54.18-24.96Q54.35-25.1 61.21-25.14L61.21-25.14Q67.89-25.17 68.27-25.31L68.27-25.31Q68.41-25.38 68.41-25.7L68.41-25.7Q68.41-26.02 66.87-27.33 65.32-28.65 64.97-28.65L64.97-28.65Q64.76-28.65 63.95-27.53L63.95-27.53Q63.28-26.54 63-26.4L63-26.4Q62.47-26.12 59.66-26.12L59.66-26.12Q58.92-26.12 58.64-26.12L58.64-26.12Q55.86-26.12 55.3-26.16 54.74-26.19 54.56-26.37L54.56-26.37Q54.21-26.75 54.44-27.72 54.67-28.69 55.2-29.04L55.2-29.04Q55.93-29.43 54.63-29.85L54.63-29.85Q53.89-30.06 52.35-30.38L52.35-30.38Q50.87-30.69 50.8-30.52L50.8-30.52Q50.77-30.48 50.77-30.16L50.77-30.16Q50.77-26.65 49.96-26.23L49.96-26.23Q49.61-26.09 45.88-26.12 42.15-26.16 40.29-26.33L40.29-26.33Q39.8-26.37 39.76-26.26 39.73-26.16 40.11-25.45L40.11-25.45Q40.46-24.79 40.62-24.71 40.78-24.64 41.63-24.79L41.63-24.79Q43.49-25.07 46.58-25.1L46.58-25.1Q47.39-25.1 47.78-25.12 48.16-25.14 48.64-25.1 49.11-25.07 49.29-25.03 49.46-25 49.66-24.86 49.85-24.71 49.89-24.63 49.92-24.54 49.92-24.24 49.92-23.94 49.85-23.71 49.78-23.48 49.68-22.99L49.68-22.99Q49.39-21.8 49.03-21.59 48.66-21.38 47-21.38L47-21.38Q44.23-21.38 41.91-21.59L41.91-21.59Q41.24-21.66 41.24-21.52L41.24-21.52Q41.24-21.41 41.55-20.74L41.55-20.74Q41.59-20.71 41.63-20.6L41.63-20.6Q41.87-20.07 42.06-20 42.26-19.93 43.14-20.07L43.14-20.07Q43.38-20.11 43.52-20.14L43.52-20.14Q45.7-20.5 47.14-20.37 48.59-20.25 48.59-19.72L48.59-19.72Q48.59-19.3 48.11-18.18 47.64-17.05 47.36-16.8L47.36-16.8Q47.11-16.56 44.17-16.49 41.24-16.42 39.09-16.63L39.09-16.63Q38.25-16.7 38.18-16.61 38.11-16.52 38.5-15.82L38.5-15.82Q38.85-15.15 38.95-15.06 39.06-14.98 39.69-15.08L39.69-15.08Q41.24-15.33 43.44-15.42 45.63-15.5 46.02-15.36L46.02-15.36Q46.72-15.08 45.74-13.32 44.75-11.57 42.7-9.35 40.64-7.14 38.53-5.63L38.53-5.63Q37.41-4.85 37.97-4.75L37.97-4.75Q38.36-4.68 40.36-5.84 42.36-7 43.73-8.05L43.73-8.05Q44.61-8.72 44.95-8.82 45.28-8.93 45.42-8.61L45.42-8.61Q45.56-8.26 45.53-5.19 45.49-2.11 45.32 0.91L45.32 0.91Q45.25 2.11 45.3 2.43 45.35 2.74 45.6 2.88ZM58.5-0.39L58.5-0.39Q58.22-0.25 53.93-0.25 49.64-0.25 49.39-0.39L49.39-0.39Q49.08-0.56 49.01-0.91 48.94-1.27 48.94-2.67L48.94-2.67Q48.94-4.29 49.04-4.5L49.04-4.5Q49.25-4.99 50.91-5.03L50.91-5.03Q50.94-5.03 53.96-5.03L53.96-5.03Q54.46-5.03 55.27-5.03L55.27-5.03Q58.11-5.03 58.57-4.82 59.03-4.61 58.99-3.3L58.99-3.3Q58.99-2.88 58.99-2.67L58.99-2.67Q58.99-1.23 58.92-0.88 58.85-0.53 58.5-0.39ZM58.61-6.22L58.61-6.22Q58.36-6.01 53.96-6.01 49.57-6.01 49.32-6.22L49.32-6.22Q49.04-6.4 48.97-6.79 48.9-7.17 48.9-8.47L48.9-8.47Q48.9-8.51 48.9-8.96L48.9-8.96Q48.9-10.2 49.38-10.39 49.85-10.58 52.7-10.58L52.7-10.58Q53.51-10.58 53.96-10.58 54.42-10.58 55.23-10.58L55.23-10.58Q58.25-10.58 58.68-10.34L58.68-10.34Q59.03-10.05 59.03-8.96L59.03-8.96Q59.03-8.65 59.03-8.47L59.03-8.47Q59.03-7.17 58.96-6.79 58.89-6.4 58.61-6.22ZM58.71-11.74L58.71-11.74Q58.43-11.6 53.95-11.58 49.46-11.57 49.08-11.71L49.08-11.71Q48.59-11.88 48.46-12.09 48.34-12.3 48.53-12.74 48.73-13.18 49.36-14.1L49.36-14.1Q49.46-14.24 49.61-14.45L49.61-14.45Q50.1-15.19 50.57-15.33 51.05-15.47 53.23-15.47L53.23-15.47Q53.72-15.47 54-15.47L54-15.47Q57.34-15.47 57.83-15.26L57.83-15.26Q58.22-15.08 58.78-14.24L58.78-14.24Q58.85-14.13 58.89-14.06L58.89-14.06Q59.52-13.08 59.48-12.57 59.45-12.06 58.71-11.74ZM56.81-16.59L56.81-16.59Q56.53-16.49 54.11-16.49L54.11-16.49Q51.64-16.49 51.35-16.72 51.05-16.95 51.68-18.42 52.31-19.9 52.63-20.14 52.95-20.39 54.21-20.39L54.21-20.39Q55.37-20.39 55.71-20.21 56.04-20.04 56.32-19.27L56.32-19.27Q56.64-18.42 56.81-18.04L56.81-18.04Q57.3-16.88 56.81-16.59ZM88.42 2.6L88.42 2.6Q88.88 2.81 89.98 2.46 91.09 2.11 91.62 1.62L91.62 1.62Q91.83 1.44 91.86 1.23 91.9 1.02 91.83 0L91.83 0Q91.79-0.42 91.76-1.63 91.72-2.85 91.72-3.09L91.72-3.09Q91.62-5.7 91.63-11.3 91.65-16.91 91.79-17.12L91.79-17.12Q91.97-17.51 92.43-17.58 92.88-17.65 95.13-17.65L95.13-17.65Q97.59-17.65 97.66-17.65L97.66-17.65Q98.4-17.51 98.58-16.59L98.58-16.59Q98.65-16.14 98.65-11.43L98.65-11.43Q98.65-10.9 98.65-9.95L98.65-9.95Q98.65-6.22 98.44-5.63 98.23-5.03 96.89-5.1L96.89-5.1Q96.54-5.13 96.33-5.13L96.33-5.13Q94.46-5.2 94.13-5.19 93.8-5.17 93.8-5.03L93.8-5.03Q93.8-4.78 94.57-4.64L94.57-4.64Q95.77-4.39 96.56-3.6 97.35-2.81 97.35-1.83L97.35-1.83Q97.35-1.51 97.47-1.44 97.59-1.37 98.02-1.41L98.02-1.41Q100.83-1.72 101.5-3.09L101.5-3.09Q101.81-3.73 101.87-4.61 101.92-5.48 101.95-10.41L101.95-10.41Q101.99-16.31 102.09-16.73L102.09-16.73Q102.2-17.02 102.62-17.23L102.62-17.23Q102.69-17.26 102.73-17.3L102.73-17.3Q103.39-17.68 103.25-17.93L103.25-17.93Q103.08-18.25 102.08-19.07 101.07-19.9 100.37-20.29L100.37-20.29Q100.02-20.46 99.79-20.36 99.56-20.25 99.18-19.72L99.18-19.72Q98.47-18.84 98.12-18.74L98.12-18.74Q97.73-18.56 95.1-18.56L95.1-18.56Q94.89-18.56 94.5-18.56L94.5-18.56Q92.25-18.56 91.93-18.84L91.93-18.84Q91.65-19.09 91.65-20.43L91.65-20.43Q91.65-20.64 91.65-20.78L91.65-20.78Q91.65-21.97 91.74-22.36 91.83-22.75 92.14-22.92L92.14-22.92Q92.43-23.1 92.64-23.38L92.64-23.38Q92.99-23.73 93.78-23.78 94.57-23.84 99.42-23.84L99.42-23.84Q104.2-23.84 104.99-23.89 105.79-23.94 105.93-24.22L105.93-24.22Q106.07-24.47 105.22-25.31 104.38-26.16 103.01-27.18L103.01-27.18Q102.34-27.63 102.09-27.51 101.85-27.39 100.9-26.16L100.9-26.16Q100.23-25.24 100.02-25.1L100.02-25.1Q99.6-24.89 97.14-24.89L97.14-24.89Q96.43-24.89 95.94-24.89L95.94-24.89Q95.59-24.89 94.99-24.89L94.99-24.89Q92.25-24.89 91.9-25.14L91.9-25.14Q91.65-25.31 91.65-26.16L91.65-26.16Q91.65-26.37 91.65-26.51L91.65-26.51Q91.65-27.6 91.72-27.93 91.79-28.27 92.14-28.58L92.14-28.58Q92.67-29.07 92.11-29.39L92.11-29.39Q91.72-29.57 90.77-29.85L90.77-29.85Q88.28-30.52 88.07-30.27L88.07-30.27Q87.96-30.2 88-29.88L88-29.88Q88.63-25.38 87.79-24.96L87.79-24.96Q87.57-24.86 81.77-24.87 75.97-24.89 74.85-25L74.85-25Q74.04-25.07 73.95-24.98 73.86-24.89 74.21-24.22L74.21-24.22Q74.57-23.52 74.71-23.43 74.85-23.34 75.73-23.48L75.73-23.48Q77.7-23.77 82.86-23.8L82.86-23.8Q83.39-23.8 84.3-23.8L84.3-23.8Q87.36-23.84 87.82-23.59L87.82-23.59Q88.28-23.34 88.24-22.18L88.24-22.18Q88.24-22.08 88.24-21.9L88.24-21.9Q88.24-21.45 88.24-21.2L88.24-21.2Q88.24-20.99 88.24-20.6L88.24-20.6Q88.28-19.05 87.93-18.81 87.57-18.56 85.43-18.56L85.43-18.56Q84.97-18.56 84.69-18.56L84.69-18.56Q82.2-18.56 81.69-18.65 81.18-18.74 79.45-19.51L79.45-19.51Q77.94-20.18 77.8-20.07L77.8-20.07Q77.7-20 77.8-18.91L77.8-18.91Q78.05-16.24 78.06-11.39 78.08-6.54 77.84-3.02L77.84-3.02Q77.73-1.72 78.05-1.42 78.36-1.13 79.49-1.37 80.61-1.62 81.11-2.07 81.6-2.53 81.53-3.3L81.53-3.3Q81.35-6.71 81.32-11.76 81.28-16.8 81.46-17.16 81.63-17.51 82.11-17.58 82.58-17.65 84.8-17.65 87.01-17.65 87.47-17.58 87.93-17.51 88.1-17.16L88.1-17.16Q88.31-16.77 88.28-10.35 88.24-3.94 88.03-0.39L88.03-0.39Q87.89 1.65 87.94 2.04 88 2.43 88.42 2.6ZM135.88 2.46L135.88 2.46Q135.88 2.95 136.34 2.85L136.34 2.85Q138.06 2.57 138.97 2.06 139.89 1.55 140.31 0.42L140.31 0.42Q140.48-0.11 140.48-18.11L140.48-18.11Q140.52-25.59 140.63-25.88L140.63-25.88Q140.84-26.26 141.5-26.65L141.5-26.65Q142.28-27.11 140.45-28.48L140.45-28.48Q140.1-28.76 139.61-29.07L139.61-29.07Q138.8-29.6 138.59-29.57 138.38-29.53 137.67-28.72L137.67-28.72Q137.11-28.02 136.74-27.93 136.37-27.84 134.12-27.81L134.12-27.81Q131.84-27.81 131.31-27.9 130.78-27.98 129.16-28.62L129.16-28.62Q127.69-29.21 127.53-29.2 127.37-29.18 127.44-28.41L127.44-28.41Q127.69-26.09 127.69-18.53L127.69-18.53Q127.69-12.73 127.63-11.32 127.58-9.91 127.3-8.19L127.3-8.19Q126.32-2.25 122.48 1.58L122.48 1.58Q121.82 2.25 121.69 2.44 121.57 2.64 121.78 2.78L121.78 2.78Q121.92 2.88 123.47 1.9L123.47 1.9Q129.09-1.83 130.32-8.89L130.32-8.89Q130.54-10.2 130.78-10.41L130.78-10.41Q131.1-10.69 133.17-10.72L133.17-10.72Q133.77-10.72 133.84-10.72L133.84-10.72Q136.34-10.72 136.62-10.65L136.62-10.65Q137.25-10.44 137.36-9.35L137.36-9.35Q137.36-9.11 137.39-6.22L137.39-6.22Q137.39-5.91 137.39-5.34L137.39-5.34Q137.39-2.07 137.06-1.55 136.72-1.02 134.72-1.16L134.72-1.16Q134.26-1.2 134.02-1.2L134.02-1.2Q131.84-1.34 131.77-1.16L131.77-1.16Q131.77-1.13 131.77-1.05L131.77-1.05Q131.8-0.88 131.92-0.83 132.05-0.77 132.68-0.63L132.68-0.63Q134.16-0.28 135.02 0.54 135.88 1.37 135.88 2.46ZM136.93-11.92L136.93-11.92Q136.72-11.74 134.09-11.72 131.45-11.71 131.17-11.85L131.17-11.85Q130.82-12.02 130.76-12.43 130.71-12.83 130.75-15.26L130.75-15.26Q130.75-15.4 130.75-16.28L130.75-16.28Q130.75-18.25 131.04-18.58 131.34-18.91 133.17-18.88L133.17-18.88Q133.73-18.88 134.05-18.88L134.05-18.88Q134.33-18.88 134.86-18.88L134.86-18.88Q136.76-18.91 137.07-18.56 137.39-18.21 137.39-16.07L137.39-16.07Q137.39-15.57 137.39-15.29L137.39-15.29Q137.39-13.15 137.32-12.62 137.25-12.09 136.93-11.92ZM136.83-19.97L136.83-19.97Q136.55-19.83 134.05-19.85 131.55-19.86 131.27-20L131.27-20Q130.89-20.18 130.82-20.65 130.75-21.13 130.75-23.38L130.75-23.38Q130.75-23.73 130.75-24.29L130.75-24.29Q130.71-26.19 131.01-26.51 131.31-26.82 133-26.79L133-26.79 133.14-26.79Q133.7-26.79 134.05-26.79L134.05-26.79Q134.33-26.79 134.86-26.79L134.86-26.79Q136.76-26.82 137.07-26.47 137.39-26.12 137.39-23.98L137.39-23.98Q137.39-23.45 137.39-23.17L137.39-23.17Q137.36-21.02 137.29-20.58 137.21-20.14 136.83-19.97ZM112.18-0.25L112.18-0.25Q112.61-0.04 113.48-0.26 114.36-0.49 114.82-0.95L114.82-0.95Q115-1.13 115.03-1.27 115.07-1.41 115.03-2.07L115.03-2.07Q114.96-3.41 115.33-3.62 115.7-3.83 118.13-3.83L118.13-3.83Q120.45-3.83 120.85-3.69 121.25-3.55 121.25-2.71L121.25-2.71Q121.25-1.69 122.73-2.11L122.73-2.11Q124.03-2.53 124.26-3.02 124.49-3.52 124.42-5.59L124.42-5.59Q124.28-9.95 124.37-11.13 124.45-12.3 124.98-12.55L124.98-12.55Q125.79-12.97 125.68-13.25L125.68-13.25Q125.58-13.57 124.35-14.66 123.12-15.75 122.73-15.89L122.73-15.89Q122.41-16 121.85-15.12L121.85-15.12Q120.34-13.04 119.78-14.45L119.78-14.45Q119.64-14.73 119.65-17.7 119.67-20.67 119.81-20.95L119.81-20.95Q119.95-21.3 120.41-21.38 120.87-21.45 123.33-21.45L123.33-21.45Q126.53-21.45 126.77-21.8L126.77-21.8Q126.98-22.08 125.75-23.31L125.75-23.31Q125.72-23.34 125.65-23.41L125.65-23.41Q124.21-24.86 123.8-24.91 123.4-24.96 122.59-23.77L122.59-23.77Q121.99-22.92 121.69-22.69 121.39-22.46 120.8-22.46L120.8-22.46Q119.99-22.46 119.83-22.85 119.67-23.24 119.67-25.28L119.67-25.28Q119.67-27.14 119.74-27.54 119.81-27.95 120.16-28.3L120.16-28.3Q120.73-28.83 120.06-29.14L120.06-29.14Q119.53-29.43 117.67-29.88L117.67-29.88Q116.47-30.2 116.35-30.13 116.23-30.06 116.33-29.14L116.33-29.14Q116.51-27.53 116.58-25.49 116.65-23.45 116.54-23.1L116.54-23.1Q116.4-22.57 115.07-22.46 113.73-22.36 110.43-22.64L110.43-22.64Q109.93-22.71 109.9-22.61 109.86-22.5 110.18-21.8L110.18-21.8Q110.46-21.16 110.62-21.08 110.78-20.99 111.41-21.09L111.41-21.09Q112.71-21.34 114.21-21.41 115.7-21.48 116.05-21.3L116.05-21.3Q116.47-21.09 116.54-20.67 116.61-20.25 116.61-17.68L116.61-17.68Q116.61-14.66 116.37-14.24L116.37-14.24Q116.09-13.71 114.79-14.2L114.79-14.2Q114.5-14.31 113.52-14.73L113.52-14.73Q113.13-14.87 112.66-15.05 112.18-15.22 111.94-15.33L111.94-15.33 111.73-15.4Q111.66-15.36 111.66-15.31 111.66-15.26 111.73-14.7L111.73-14.7Q111.73-14.52 111.74-14.41 111.76-14.31 111.78-14.1 111.8-13.89 111.81-13.66 111.83-13.43 111.87-13.18L111.87-13.18Q112.01-11.88 112.03-7.63 112.04-3.38 111.9-1.93L111.9-1.93Q111.83-0.91 111.87-0.65 111.9-0.39 112.18-0.25ZM120.8-4.92L120.8-4.92Q120.52-4.78 118.14-4.8 115.77-4.82 115.49-4.96L115.49-4.96Q115.1-5.13 115.05-5.63 115-6.12 115-8.89L115-8.89Q115-9.28 115-9.95L115-9.95Q114.96-12.23 115.28-12.62L115.28-12.62Q115.56-13.01 117.07-12.97L117.07-12.97Q117.14-12.97 117.32-12.97L117.32-12.97Q117.84-12.97 118.13-12.97L118.13-12.97Q118.44-12.97 118.93-12.97L118.93-12.97Q120.73-13.01 121.01-12.62 121.29-12.23 121.29-9.91L121.29-9.91Q121.29-9.28 121.29-8.89L121.29-8.89Q121.29-6.05 121.24-5.57 121.18-5.1 120.8-4.92ZM153 2.81L153 2.81Q153.77 3.27 154.97 2.74 156.16 2.21 156.23 1.37L156.23 1.37Q156.23 1.3 156.23 1.16L156.23 1.16Q156.3 0.46 156.62 0.28L156.62 0.28Q157.15 0.07 161.19 0.07L161.19 0.07 162.04 0.07Q162.42 0.07 163.09 0.07L163.09 0.07Q166.61 0.07 167.19 0.21 167.77 0.35 167.73 1.27L167.73 1.27Q167.73 1.48 167.73 1.58L167.73 1.58Q167.7 2.57 168.03 2.76 168.36 2.95 169.56 2.64L169.56 2.64Q170.82 2.32 171.09 1.95 171.35 1.58 171.28 0.28L171.28 0.28Q171-4.75 171.18-7.12 171.35-9.49 172.02-9.88L172.02-9.88Q172.48-10.13 172.55-10.34L172.55-10.34Q172.69-10.83 174.45-9.91L174.45-9.91Q175.22-9.49 175.39-9.49 175.57-9.49 175.75-9.95L175.75-9.95Q176.38-11.6 177.89-12.34L177.89-12.34Q178.7-12.73 178.17-13.04L178.17-13.04Q177.89-13.22 177.12-13.46L177.12-13.46Q169.1-16.21 165.06-20.5L165.06-20.5Q164.29-21.3 164.2-21.73 164.11-22.15 164.71-22.39L164.71-22.39Q165.3-22.64 165.09-22.82L165.09-22.82Q164.81-22.99 162.32-23.73L162.32-23.73Q159.71-24.5 159.54-24.36L159.54-24.36Q159.47-24.33 159.4-24.01L159.4-24.01Q158.73-20.67 154.97-16.22 151.21-11.78 146.57-8.82L146.57-8.82Q145.79-8.37 146.04-8.12L146.04-8.12Q146.18-7.98 147.67-8.68 149.17-9.39 150.71-10.3L150.71-10.3Q152.33-11.29 152.65-11.11 152.96-10.93 153-8.93L153-8.93Q153-4.5 152.75 0.35L152.75 0.35Q152.65 1.97 152.68 2.3 152.72 2.64 153 2.81ZM167.34-1.05L167.34-1.05Q167.1-0.88 162-0.91 156.9-0.95 156.66-1.13L156.66-1.13Q156.38-1.3 156.3-1.92 156.23-2.53 156.23-5.55L156.23-5.55Q156.23-8.82 156.27-9L156.27-9Q156.41-9.88 157.25-10.09L157.25-10.09Q157.71-10.2 161.47-10.16L161.47-10.16Q161.72-10.16 162-10.16L162-10.16Q162.74-10.16 163.74-10.16 164.74-10.16 165.13-10.2 165.52-10.23 166.13-10.14 166.75-10.05 166.89-10.07 167.03-10.09 167.33-9.84 167.63-9.6 167.64-9.49 167.66-9.39 167.75-8.88 167.84-8.37 167.8-8.09 167.77-7.8 167.77-6.96 167.77-6.12 167.77-5.55L167.77-5.55Q167.77-2.36 167.71-1.79 167.66-1.23 167.34-1.05ZM167.38-11.36L167.38-11.36Q167.1-11.21 161.98-11.18 156.87-11.14 156.38-11.29L156.38-11.29Q154.72-11.74 154.6-12.22 154.48-12.69 155.74-13.71L155.74-13.71Q159.26-16.42 161.89-19.93L161.89-19.93Q162.49-20.71 162.77-20.92 163.05-21.13 163.28-20.94 163.51-20.74 163.93-19.97L163.93-19.97Q165.48-17.16 168.05-14.52L168.05-14.52Q168.75-13.85 168.91-13.57 169.07-13.29 168.89-13.01L168.89-13.01Q168.75-12.73 168.17-12.09 167.59-11.46 167.38-11.36ZM147.52-18.18L147.52-18.18Q147.73-17.68 149.41-18.88 151.1-20.07 153.26-22.15 155.43-24.22 156.8-26.09L156.8-26.09Q157.89-27.53 158.34-27.67L158.34-27.67Q159.36-27.91 157.68-28.72L157.68-28.72Q157.43-28.83 156.71-29.21 155.99-29.6 155.71-29.74L155.71-29.74Q154.58-30.45 154.44-30.27L154.44-30.27Q154.37-30.2 154.3-29.92L154.3-29.92Q153.77-27.49 151.89-24.26 150.01-21.02 147.87-18.84L147.87-18.84Q147.41-18.35 147.52-18.18ZM173.64-19.72L173.64-19.72Q175.04-19.41 175.55-20.62 176.06-21.83 175.22-23.45L175.22-23.45Q174.34-25.21 172.18-26.67 170.02-28.13 166.89-29.11L166.89-29.11Q165.16-29.64 165.16-29.39L165.16-29.39Q165.16-29.21 165.8-28.65L165.8-28.65Q170.68-24.47 172.86-20.18L172.86-20.18Q173-19.9 173.64-19.72Z" transform="translate(-2.2849998474121094, 30.58020782470703)"></path></g> <!----> <!----> <!----> <!----> <!----> <!----> <!----></g></g> <g data-gra="path-slogan" fill-rule="" class="tp-slogan iconsvg-slogansvg" fill="#333" transform="translate(13.537307739257812,39.6391487121582)"><!----> <!----> <g transform="scale(1, 1)"><g transform="scale(1)"><path d="M2.06-5.06L6.56-5.06L6.56-8.58L7.73-8.58L7.73 0L6.56 0L6.56-3.98L2.06-3.98L2.06 0L0.89 0L0.89-8.58L2.06-8.58L2.06-5.06ZM15.19-3.19L15.19-8.58L16.36-8.58L16.36-3.05Q16.22 0.05 12.84 0.14L12.84 0.14Q9.70 0.05 9.56-2.86L9.56-2.86L9.56-8.58L10.73-8.58L10.73-3.19Q10.78-0.84 12.89-0.80L12.89-0.80Q15.19-0.84 15.19-3.19L15.19-3.19ZM24.56-3.61L21.94-3.61L21.94-4.59L25.69-4.59L25.69 0L24.94 0L24.66-1.08Q23.67 0.09 21.84 0.14L21.84 0.14Q20.11 0.14 19.17-0.75L19.17-0.75Q17.77-2.06 17.81-4.36L17.81-4.36Q18.14-8.63 21.89-8.81L21.89-8.81Q25.08-8.63 25.55-6L25.55-6L24.42-6Q23.95-7.78 21.84-7.83L21.84-7.83Q19.17-7.64 19.03-4.31L19.03-4.31Q19.03-0.75 21.89-0.75L21.89-0.75Q22.92-0.75 23.67-1.31L23.67-1.31Q24.61-2.06 24.56-3.61L24.56-3.61ZM33.14-3.19L33.14-8.58L34.31-8.58L34.31-3.05Q34.17 0.05 30.80 0.14L30.80 0.14Q27.66 0.05 27.52-2.86L27.52-2.86L27.52-8.58L28.69-8.58L28.69-3.19Q28.73-0.84 30.84-0.80L30.84-0.80Q33.14-0.84 33.14-3.19L33.14-3.19ZM36.89 0L36.23 0L36.23-1.27L37.50-1.27L37.50-0.09Q37.50 1.45 36.23 1.69L36.23 1.69L36.23 1.08Q36.89 0.98 36.89 0L36.89 0ZM49.92-6.05L49.92-6.05L48.80-6.05Q48.38-7.78 46.41-7.83L46.41-7.83Q43.69-7.69 43.59-4.36L43.59-4.36Q43.59-0.80 46.45-0.80L46.45-0.80Q48.42-0.84 48.89-3.19L48.89-3.19L50.02-3.19Q49.50 0.05 46.22 0.14L46.22 0.14Q42.47 0 42.38-4.31L42.38-4.31Q42.56-8.63 46.41-8.81L46.41-8.81Q49.45-8.72 49.92-6.05ZM52.55-5.06L57.05-5.06L57.05-8.58L58.22-8.58L58.22 0L57.05 0L57.05-3.98L52.55-3.98L52.55 0L51.38 0L51.38-8.58L52.55-8.58L52.55-5.06ZM65.67 0L64.83-2.48L61.36-2.48L60.47 0L59.30 0L62.53-8.58L63.84-8.58L66.94 0L65.67 0ZM63.09-7.31L61.73-3.52L64.41-3.52L63.14-7.31L63.09-7.31ZM69.38-8.58L73.69-1.64L73.69-8.58L74.81-8.58L74.81 0L73.50 0L69.14-6.94L69.09-6.94L69.09 0L67.97 0L67.97-8.58L69.38-8.58ZM83.02-3.61L80.39-3.61L80.39-4.59L84.14-4.59L84.14 0L83.39 0L83.11-1.08Q82.13 0.09 80.30 0.14L80.30 0.14Q78.56 0.14 77.63-0.75L77.63-0.75Q76.22-2.06 76.27-4.36L76.27-4.36Q76.59-8.63 80.34-8.81L80.34-8.81Q83.53-8.63 84-6L84-6L82.88-6Q82.41-7.78 80.30-7.83L80.30-7.83Q77.63-7.64 77.48-4.31L77.48-4.31Q77.48-0.75 80.34-0.75L80.34-0.75Q81.38-0.75 82.13-1.31L82.13-1.31Q83.06-2.06 83.02-3.61L83.02-3.61ZM93.09-6.05L93.09-6.05L91.97-6.05Q91.55-7.78 89.58-7.83L89.58-7.83Q86.86-7.69 86.77-4.36L86.77-4.36Q86.77-0.80 89.63-0.80L89.63-0.80Q91.59-0.84 92.06-3.19L92.06-3.19L93.19-3.19Q92.67 0.05 89.39 0.14L89.39 0.14Q85.64 0 85.55-4.31L85.55-4.31Q85.73-8.63 89.58-8.81L89.58-8.81Q92.63-8.72 93.09-6.05ZM95.72-5.06L100.22-5.06L100.22-8.58L101.39-8.58L101.39 0L100.22 0L100.22-3.98L95.72-3.98L95.72 0L94.55 0L94.55-8.58L95.72-8.58L95.72-5.06ZM108.84-3.19L108.84-8.58L110.02-8.58L110.02-3.05Q109.88 0.05 106.50 0.14L106.50 0.14Q103.36 0.05 103.22-2.86L103.22-2.86L103.22-8.58L104.39-8.58L104.39-3.19Q104.44-0.84 106.55-0.80L106.55-0.80Q108.84-0.84 108.84-3.19L108.84-3.19ZM113.20-8.58L117.52-1.64L117.52-8.58L118.64-8.58L118.64 0L117.33 0L112.97-6.94L112.92-6.94L112.92 0L111.80 0L111.80-8.58L113.20-8.58ZM130.92-6.05L130.92-6.05L129.80-6.05Q129.38-7.78 127.41-7.83L127.41-7.83Q124.69-7.69 124.59-4.36L124.59-4.36Q124.59-0.80 127.45-0.80L127.45-0.80Q129.42-0.84 129.89-3.19L129.89-3.19L131.02-3.19Q130.50 0.05 127.22 0.14L127.22 0.14Q123.47 0 123.38-4.31L123.38-4.31Q123.56-8.63 127.41-8.81L127.41-8.81Q130.45-8.72 130.92-6.05ZM132.56-8.58L133.73-8.58L133.73 0L132.56 0L132.56-8.58ZM137.91-7.59L135-7.59L135-8.58L141.94-8.58L141.94-7.59L139.03-7.59L139.03 0L137.91 0L137.91-7.59ZM149.91-8.58L146.67-3.47L146.67 0L145.50 0L145.50-3.47L142.27-8.58L143.63-8.58L146.06-4.45L148.55-8.58L149.91-8.58Z" transform="translate(-0.890625, 8.8125)"></path></g></g></g></g></g><defs v-gra="od"></defs></svg>